# xmcd
#
# Track frame offsets: 
#        150
#        20782
#        41322
#        56769
#        83027
#        99507
#        120749
#        138441
#        161379
#        181914
#        208837
#
# Disc length: 3131 seconds
#
# Revision: 10
# Processed by: cddbd v1.5.2PL0 Copyright (c) Steve Scherf et al.
# Submitted via: ExactAudioCopy v1.3
#
DISCID=900c390b
DTITLE=Mark Knopfler - 2009 - Knopfler - Get Lucky
DYEAR=2009
DGENRE=Folk Rock
TTITLE0=Border Reiver
TTITLE1=Hard Shoulder
TTITLE2=You Can't Beat the House
TTITLE3=Before Gas and TV
TTITLE4=Monteleone
TTITLE5=Cleaning My Gun
TTITLE6=The Car Was the One
TTITLE7=Remembrance Day
TTITLE8=Get Lucky
TTITLE9=So Far from the Clyde
TTITLE10=Piper to the End
EXTD=Location:  - UPC: 602527086743 - Catalogue number: 2708674 - Label: 
EXTD=Vertigo - ASIN: B002C6K86G - Release Date: 2009 09 14 - Discogs: a23
EXTD=6897,r1969946 - MUSICBRAINZ_ALBUMID: 588f0305-563a-342b-946e-c342f
EXTD=5a36ac7 - AMG: p94636,r1596498 - YEAR: 2009
EXTT0=
EXTT1=
EXTT2=
EXTT3=
EXTT4=
EXTT5=
EXTT6=
EXTT7=
EXTT8=
EXTT9=
EXTT10=
PLAYORDER=
